<?xml version="1.0" encoding="utf-8"?>
<!-- Generator: Adobe Illustrator 24.2.0, SVG Export Plug-In . SVG Version: 6.00 Build 0)  -->
<svg version="1.1" id="Layer_1" xmlns="http://www.w3.org/2000/svg" xmlns:xlink="http://www.w3.org/1999/xlink" x="0px" y="0px"
	 viewBox="0 0 561 93.9" style="enable-background:new 0 0 561 93.9;" xml:space="preserve">
<style type="text/css">
	.st0{fill:#F15A22;}
	.st1{fill:#FFFFFF;}
</style>
<image style="overflow:visible;" width="3000" height="2000" xlink:href="vanessa/Approved/education Microsite/images/shutterstock_309525356 (2).jpg"  transform="matrix(0.4293 0 0 0.4293 -1321.8564 -1467.8961)">
</image>
<path class="st0" d="M513.6,90.9H46.4c-24.3,0-44.1-19.7-44.1-44.1l0,0C2.5,22.7,22.1,3,46.4,3h467.2C538,3,557.7,22.7,557.7,47l0,0
	C557.7,71.4,538,90.9,513.6,90.9z"/>
<g>
	<path class="st1" d="M52,42h11.7v14.5c-3.1,1-6.7,1.6-10.5,1.6c-4.2,0-7.4-1.2-9.6-3.6c-2.2-2.4-3.4-5.9-3.4-10.4
		c0-4.3,1.2-7.7,3.7-10.2c2.5-2.4,5.9-3.7,10.5-3.7c1.6,0,3.3,0.1,4.9,0.4c1.5,0.3,2.8,0.7,4,1.2l-2.4,5.8c-1.9-0.9-4.2-1.5-6.4-1.5
		c-2.1,0-3.9,0.7-4.9,2.1c-1.2,1.3-1.8,3.4-1.8,5.9c0,2.5,0.6,4.4,1.6,5.8c1,1.3,2.5,1.9,4.6,1.9c1,0,2.1-0.1,3-0.3v-4.3h-4.9V42
		C52.2,42,52,42,52,42z"/>
	<path class="st1" d="M79,58.2c-3.6,0-6.2-0.9-8.2-2.8c-1.9-1.9-3-4.4-3-8s0.9-6.2,2.7-8.2s4.3-2.8,7.7-2.8c3.1,0,5.6,0.9,7.3,2.5
		c1.8,1.6,2.5,4,2.5,7.1v3.3H75.2c0,1.2,0.4,2.1,1.3,2.8c0.7,0.6,1.9,1,3.3,1c1.3,0,2.4-0.1,3.6-0.3c1.2-0.1,2.2-0.6,3.4-1.2v5.2
		c-1.2,0.6-2.4,1-3.6,1.2C82.2,58.2,80.7,58.2,79,58.2z M78.6,41.4c-0.9,0-1.6,0.3-2.1,0.7c-0.6,0.6-0.9,1.3-1,2.5h6.2
		c0-1-0.3-1.8-0.9-2.4C80.2,41.7,79.5,41.4,78.6,41.4z"/>
	<path class="st1" d="M102.6,52.5c1,0,2.1-0.3,3.6-0.7v5.3c-1,0.4-1.9,0.7-2.8,0.9s-1.9,0.3-3.1,0.3c-2.4,0-4.2-0.6-5.2-1.8
		s-1.6-3.1-1.6-5.6v-8.6h-2.5v-3l3.3-2.2l1.9-4.4h4.7v4.2h5.2v5.5h-5.2v8.2C100.7,51.8,101.3,52.5,102.6,52.5z"/>
	<path class="st1" d="M137.8,49.6c0,1.6-0.4,3.1-1.3,4.4c-0.9,1.3-2.1,2.4-3.7,3c-1.6,0.6-3.6,1-5.6,1c-1.8,0-3.3-0.1-4.6-0.4
		c-1.2-0.3-2.5-0.7-3.9-1.3v-6.5c1.3,0.7,2.8,1.3,4.3,1.6c1.5,0.4,2.8,0.6,4.2,0.6c1,0,1.9-0.1,2.4-0.6c0.4-0.4,0.7-0.9,0.7-1.5
		c0-0.3-0.1-0.7-0.3-1c-0.1-0.3-0.6-0.6-1-0.9c-0.4-0.3-1.6-0.9-3.6-1.8c-1.8-0.7-3.1-1.6-4-2.4s-1.5-1.6-1.9-2.5
		c-0.4-1-0.6-2.1-0.6-3.4c0-2.5,0.9-4.4,2.7-5.8c1.8-1.3,4.3-2.1,7.4-2.1c2.8,0,5.6,0.6,8.6,1.9l-2.2,5.6c-2.5-1.2-4.7-1.8-6.5-1.8
		c-0.9,0-1.6,0.1-2.1,0.4c-0.4,0.3-0.6,0.7-0.6,1.2c0,0.6,0.3,1,0.9,1.5s2.1,1.2,4.4,2.2c2.4,1,4,2.2,4.9,3.4
		C137.3,46.3,137.8,47.8,137.8,49.6z"/>
	<path class="st1" d="M151.9,52.5c1,0,2.1-0.3,3.6-0.7v5.3c-1,0.4-1.9,0.7-2.8,0.9c-0.9,0.1-1.9,0.3-3.1,0.3c-2.4,0-4.2-0.6-5.2-1.8
		s-1.6-3-1.6-5.5v-8.6h-2.5v-3l3.3-2.2l1.9-4.4h4.7V37h5.2v5.5h-5.2v8.2C149.9,51.8,150.5,52.5,151.9,52.5z"/>
	<path class="st1" d="M172.6,57.9l-1.3-2.8h-0.1c-1,1.2-1.9,2.1-3,2.5c-1,0.4-2.4,0.6-3.9,0.6c-1.9,0-3.6-0.6-4.6-1.8
		c-1.2-1.2-1.6-2.8-1.6-5c0-2.2,0.7-3.9,2.4-5c1.5-1,3.9-1.8,6.8-1.8l3.6-0.1v-0.3c0-1.8-0.9-2.5-2.5-2.5c-1.5,0-3.4,0.4-5.8,1.5
		l-2.1-4.7c2.4-1.2,5.5-1.9,9.2-1.9c2.7,0,4.7,0.6,6.2,1.9s2.2,3.3,2.2,5.6v13.8h-5.5V57.9z M167.3,53.1c0.9,0,1.6-0.3,2.2-0.9
		c0.6-0.6,0.9-1.3,0.9-2.2v-1.6h-1.6c-2.4,0.1-3.6,0.9-3.6,2.7C165.2,52.4,166,53.1,167.3,53.1z"/>
	<path class="st1" d="M195.3,36.5c0.6,0,1.2,0,1.8,0.1h0.4l-0.6,6.8c-0.6-0.1-1.5-0.1-2.5-0.1c-1.6,0-2.7,0.3-3.4,1
		c-0.7,0.7-1,1.8-1,3.1v10.4h-7.3V36.8h5.3l1.2,3.4h0.3c0.6-1,1.5-2.1,2.5-2.7C193.1,36.8,194.1,36.5,195.3,36.5z"/>
	<path class="st1" d="M210.8,52.5c1,0,2.1-0.3,3.6-0.7v5.3c-1,0.4-1.9,0.7-2.8,0.9c-0.9,0.1-1.9,0.3-3.1,0.3c-2.4,0-4.2-0.6-5.2-1.8
		s-1.6-3-1.6-5.5v-8.6H199v-3l3.3-2.2l1.9-4.4h4.7V37h5.2v5.5H209v8.2C208.8,51.8,209.4,52.5,210.8,52.5z"/>
	<path class="st1" d="M228,58.2c-3.6,0-6.2-0.9-8.2-2.8c-1.9-1.9-3-4.4-3-8s0.9-6.2,2.7-8.2c1.8-1.9,4.3-2.8,7.7-2.8
		c3.1,0,5.6,0.9,7.3,2.5c1.8,1.6,2.5,4,2.5,7.1v3.3h-12.9c0,1.2,0.4,2.1,1.3,2.8c0.9,0.7,1.9,1,3.3,1s2.4-0.1,3.6-0.3
		c1-0.3,2.2-0.6,3.4-1.2v5.2c-1.2,0.6-2.4,1-3.6,1.2C231.2,58.2,229.7,58.2,228,58.2z M227.7,41.4c-0.9,0-1.6,0.3-2.1,0.7
		c-0.4,0.4-0.9,1.3-1,2.5h6.2c0-1-0.3-1.8-0.9-2.4S228.6,41.4,227.7,41.4z"/>
	<path class="st1" d="M247.8,58.2c-1.5,0-2.8-0.4-3.9-1.3c-1.2-0.9-1.9-2.1-2.5-3.7c-0.6-1.6-0.9-3.6-0.9-5.8c0-3.4,0.7-6.1,2.1-8
		s3.3-2.8,5.6-2.8c1.2,0,2.2,0.3,3.1,0.7c0.9,0.4,1.6,1.2,2.4,2.4h0.1c-0.3-1.6-0.3-3.3-0.3-4.9v-5.6h7.3v28.8h-5.5l-1.5-2.7h-0.3
		C252.1,57.1,250.4,58.2,247.8,58.2z M250.8,52.5c1.2,0,1.9-0.3,2.5-1c0.4-0.7,0.7-1.8,0.7-3.4v-0.6c0-1.8-0.3-3.1-0.7-4
		s-1.3-1.2-2.5-1.2c-0.9,0-1.6,0.4-2.2,1.3c-0.6,0.9-0.7,2.2-0.7,3.9c0,1.6,0.3,2.8,0.7,3.7C249,52.1,249.9,52.5,250.8,52.5z"/>
	<path class="st1" d="M301.8,57.9h-9.6l-9.9-19.1h-0.1c0.3,3,0.3,5.3,0.3,6.8v12.2h-6.5v-27h9.5l9.8,18.8h0.1
		c-0.1-2.7-0.3-4.9-0.3-6.5V30.7h6.5v27.1H301.8z"/>
	<path class="st1" d="M327.3,47.3c0,3.4-0.9,6.1-2.8,8c-1.8,1.9-4.4,2.8-7.7,2.8c-3.1,0-5.8-1-7.6-3c-1.9-1.9-2.8-4.6-2.8-8
		c0-3.4,0.9-6.1,2.8-8c1.9-1.9,4.4-2.8,7.7-2.8c2.1,0,3.9,0.4,5.5,1.3s2.8,2.1,3.7,3.7C327,43,327.3,45.1,327.3,47.3z M313.7,47.3
		c0,1.8,0.3,3.1,0.7,4.2c0.4,0.9,1.3,1.5,2.4,1.5c1.2,0,1.9-0.4,2.4-1.5c0.4-0.9,0.7-2.4,0.7-4.2c0-1.8-0.3-3.1-0.7-4
		s-1.3-1.3-2.4-1.3c-1,0-1.9,0.4-2.4,1.3C314,44.1,313.7,45.6,313.7,47.3z"/>
	<path class="st1" d="M349.4,57.9l-2.4-9.9l-0.6-3l-0.3-2.4H346c-0.6,3.4-1,5.6-1.2,6.5l-2.1,8.9h-7.6L329.4,37h7.1l1.6,8
		c0.6,2.8,0.9,5,0.9,6.8h0.1c0-1.2,0.4-3.3,1-6.5l1.9-8.5h8l1.8,8.6c0.6,2.7,0.9,4.9,1,6.4h0.1c0-0.9,0.1-2.1,0.3-3.6
		c0.1-1.3,0.3-2.5,0.6-3.4l1.8-8h7L357,57.9H349.4z"/>
	<path class="st1" d="M388.6,42.3h-4.4v15.6h-7.3V42.3h-2.8v-3.6l3-1.8v-0.3c0-2.8,0.6-4.7,1.6-5.9c1.2-1.2,3-1.8,5.5-1.8
		c0.9,0,1.9,0,2.7,0.1c0.9,0.1,1.9,0.4,3,0.7l-1.5,4.7c-0.9-0.3-1.8-0.3-2.7-0.3c-0.6,0-0.9,0.1-1.2,0.4c-0.3,0.3-0.4,0.9-0.4,1.6
		V37h4.4L388.6,42.3L388.6,42.3z"/>
	<path class="st1" d="M411.4,47.3c0,3.4-0.9,6.1-2.8,8c-1.8,1.9-4.4,2.8-7.7,2.8c-3.1,0-5.8-1-7.6-3c-1.9-1.9-2.8-4.6-2.8-8
		c0-3.4,0.9-6.1,2.8-8c1.9-1.9,4.4-2.8,7.7-2.8c2.1,0,3.9,0.4,5.5,1.3c1.6,0.9,2.8,2.1,3.7,3.7C411.1,43.2,411.4,45.1,411.4,47.3z
		 M397.9,47.3c0,1.8,0.3,3.1,0.7,4.2c0.4,0.9,1.3,1.5,2.4,1.5c1.2,0,1.9-0.4,2.4-1.5c0.4-0.9,0.7-2.4,0.7-4.2c0-1.8-0.3-3.1-0.7-4
		c-0.4-0.9-1.3-1.3-2.4-1.3c-1,0-1.9,0.4-2.4,1.3C398.1,44.1,397.9,45.6,397.9,47.3z"/>
	<path class="st1" d="M428.3,36.5c0.6,0,1.2,0,1.8,0.1h0.4l-0.6,6.8c-0.6-0.1-1.5-0.1-2.5-0.1c-1.6,0-2.7,0.3-3.4,1
		c-0.7,0.7-1,1.8-1,3.1v10.4h-7.3V36.8h5.3l1.2,3.4h0.3c0.6-1,1.5-2.1,2.5-2.7C426.1,36.8,427.2,36.5,428.3,36.5z"/>
	<path class="st1" d="M450.9,57.9h-7.3V30.7h16.2v5.9h-8.9v5.2h8.2v5.9h-8.2V57.9z"/>
	<path class="st1" d="M476.4,36.5c0.6,0,1.2,0,1.8,0.1h0.4l-0.6,6.8c-0.6-0.1-1.5-0.1-2.5-0.1c-1.6,0-2.7,0.3-3.4,1
		c-0.7,0.7-1,1.8-1,3.1v10.4h-7.3V36.8h5.3l1.2,3.4h0.3c0.6-1,1.5-2.1,2.5-2.7C474.2,36.8,475.4,36.5,476.4,36.5z"/>
	<path class="st1" d="M491.7,58.2c-3.6,0-6.2-0.9-8.2-2.8c-1.9-1.9-3-4.4-3-8s0.9-6.2,2.7-8.2c1.8-1.9,4.3-2.8,7.7-2.8
		c3.1,0,5.6,0.9,7.3,2.5c1.8,1.6,2.5,4,2.5,7.1v3.3H488c0,1.2,0.4,2.1,1.3,2.8c0.7,0.6,1.9,1,3.3,1c1.3,0,2.4-0.1,3.6-0.3
		c1.2-0.1,2.2-0.6,3.4-1.2v5.2c-1.2,0.6-2.4,1-3.6,1.2S493.3,58.2,491.7,58.2z M491.2,41.4c-0.9,0-1.6,0.3-2.1,0.7
		c-0.6,0.6-0.9,1.3-1,2.5h6.2c0-1-0.3-1.8-0.9-2.4S492.1,41.4,491.2,41.4z"/>
	<path class="st1" d="M515.1,58.2c-3.6,0-6.2-0.9-8.2-2.8c-1.9-1.9-3-4.4-3-8s0.9-6.2,2.7-8.2s4.3-2.8,7.7-2.8
		c3.1,0,5.6,0.9,7.3,2.5c1.8,1.6,2.5,4,2.5,7.1v3.3h-12.9c0,1.2,0.4,2.1,1.3,2.8c0.7,0.6,1.9,1,3.3,1c1.3,0,2.4-0.1,3.6-0.3
		c1.2-0.1,2.2-0.6,3.4-1.2v5.2c-1.2,0.6-2.4,1-3.6,1.2C518.2,58.2,516.7,58.2,515.1,58.2z M514.7,41.4c-0.9,0-1.6,0.3-2.1,0.7
		c-0.6,0.6-0.9,1.3-1,2.5h6.2c0-1-0.3-1.8-0.9-2.4C516.3,41.7,515.7,41.4,514.7,41.4z"/>
</g>
</svg>
